<svg width="1440" height="686" viewBox="0 0 1440 686" fill="none" xmlns="http://www.w3.org/2000/svg">
<path opacity="0.2" d="M1455.3 -134.287L-17 -134.287M1455.3 -8.18709L-17 -8.18716M1455.3 54.8626L-17 54.8626M1455.3 117.912L-17 117.912M1455.3 180.962L-17 180.962M1455.3 244.012L-17 244.012M1455.3 307.062L-17 307.061M1455.3 370.111L-17 370.111M1455.3 433.161L-17 433.161M1455.3 496.211L-17 496.211M1455.3 559.26L-17 559.26M1455.3 622.31L-17 622.31M1455.3 685.36L-17 685.36M1455.3 748.41L-17 748.41M1455.3 811.459L-17 811.459M1455.3 874.509L-17 874.509M1455.3 -71.2368L-17 -71.2369M1457 922.222L1457 -182M1330.9 922.222L1330.9 -182M1267.85 922.222L1267.85 -182M1204.8 922.222L1204.8 -182M1141.75 922.222L1141.75 -182M1078.7 922.222L1078.7 -182M1015.65 922.222L1015.65 -182M952.602 922.222L952.602 -182M889.552 922.222L889.553 -182M826.503 922.222L826.503 -182M763.453 922.222L763.453 -182M700.403 922.222L700.403 -182M637.354 922.222L637.354 -182M574.304 922.222L574.304 -182M511.254 922.222L511.254 -182M448.205 922.222L448.205 -182M1393.95 922.222L1393.95 -182M322.105 922.222L322.105 -182M259.055 922.222L259.055 -182M196.006 922.222L196.006 -182M132.956 922.222L132.956 -182M69.9062 922.222L69.9065 -182M6.85654 922.222L6.85664 -182M385.155 922.222L385.155 -182" stroke="url(#paint0_linear_299_139)" stroke-width="1.70405" stroke-miterlimit="10" stroke-linejoin="bevel" stroke-dasharray="5.11 5.11"/>
<defs>
<linearGradient id="paint0_linear_299_139" x1="720" y1="-124" x2="720" y2="1002" gradientUnits="userSpaceOnUse">
<stop stop-color="white"/>
<stop offset="1" stop-color="white" stop-opacity="0"/>
</linearGradient>
</defs>
</svg>
